<?xml version="1.0" standalone="no"?>
<!DOCTYPE svg PUBLIC "-//W3C//DTD SVG 20010904//EN"
 "http://www.w3.org/TR/2001/REC-SVG-20010904/DTD/svg10.dtd">
<svg version="1.0" xmlns="http://www.w3.org/2000/svg"
 width="875.000000pt" height="875.000000pt" viewBox="0 0 875.000000 875.000000"
 preserveAspectRatio="xMidYMid meet">
<metadata>
Created by potrace 1.14, written by Peter Selinger 2001-2017
</metadata>
<g transform="translate(0.000000,875.000000) scale(0.100000,-0.100000)"
fill="#000000" stroke="none">
<path d="M3069 8626 c-2 -2 -40 -7 -83 -11 -43 -4 -86 -8 -95 -10 -9 -1 -38
-6 -66 -9 -27 -4 -61 -9 -75 -11 -41 -8 -72 -14 -132 -25 -85 -16 -350 -93
-463 -135 -701 -262 -1289 -750 -1685 -1400 -57 -93 -169 -313 -205 -400 -15
-38 -34 -83 -41 -100 -68 -158 -164 -519 -189 -715 -4 -30 -9 -63 -11 -73 -19
-106 -27 -590 -11 -737 25 -225 60 -410 118 -609 29 -100 71 -225 89 -266 5
-11 28 -65 51 -120 124 -293 322 -607 544 -865 54 -63 289 -294 340 -335 28
-22 52 -42 55 -45 16 -18 188 -146 265 -197 247 -165 557 -314 825 -398 l86
-26 72 -148 c40 -82 100 -195 135 -253 313 -522 764 -952 1290 -1231 237 -126
607 -266 797 -301 14 -2 68 -13 120 -25 52 -11 120 -23 150 -27 30 -3 63 -8
73 -10 104 -19 578 -27 727 -11 119 12 163 17 186 22 12 3 39 7 60 10 32 5 80
14 159 31 141 29 440 123 543 170 29 13 56 24 60 24 9 0 261 127 337 170 33
19 107 66 165 104 729 481 1239 1227 1419 2076 19 92 24 121 36 205 4 22 8 51
10 65 20 120 28 580 12 730 -14 136 -24 205 -47 326 -178 915 -738 1714 -1545
2203 -204 123 -481 249 -698 316 -74 23 -90 32 -98 54 -21 53 -100 212 -160
317 -352 624 -929 1137 -1585 1412 -195 82 -404 149 -584 188 -251 53 -378 66
-676 70 -150 1 -273 1 -275 0z m507 -710 c11 -2 46 -7 78 -10 96 -11 262 -45
384 -81 533 -156 1002 -478 1345 -922 64 -84 110 -153 105 -158 -2 -1 -77 -5
-168 -9 -91 -3 -183 -8 -205 -11 -22 -2 -63 -7 -91 -10 -29 -3 -61 -7 -72 -10
-11 -2 -42 -7 -69 -10 -129 -19 -375 -82 -529 -136 -181 -63 -432 -178 -572
-261 -21 -13 -45 -27 -55 -33 -130 -77 -288 -191 -420 -303 l-88 -75 -27 25
c-15 14 -92 82 -172 153 -80 70 -183 163 -230 205 -47 43 -101 90 -120 106
-19 16 -42 36 -50 44 -9 8 -54 49 -100 90 -146 130 -185 165 -190 170 -3 3
-36 32 -75 65 -38 33 -79 69 -90 80 -11 11 -56 52 -100 90 -44 39 -82 72 -85
75 -3 3 -25 23 -50 45 -25 22 -82 72 -125 111 -44 40 -98 88 -120 108 -22 19
-43 36 -47 36 -20 0 -4 31 30 56 20 15 39 31 42 34 17 20 194 139 303 204 249
149 673 293 949 322 29 3 85 9 123 13 71 8 453 6 491 -3z m-2371 -1174 c36
-34 168 -152 254 -227 18 -16 48 -42 65 -57 17 -16 40 -36 51 -47 11 -10 47
-42 80 -71 115 -101 245 -217 495 -440 41 -37 183 -163 315 -280 132 -117 251
-223 264 -235 l24 -23 -29 -39 c-99 -129 -240 -382 -332 -598 -70 -163 -155
-424 -175 -535 -3 -14 -10 -43 -15 -65 -6 -22 -13 -53 -15 -70 -3 -16 -10 -57
-15 -90 -30 -168 -37 -275 -37 -535 0 -201 6 -333 19 -415 6 -34 -2 -34 -62
-3 -277 148 -527 347 -752 598 -36 41 -210 268 -210 275 0 2 -20 35 -45 73
-116 180 -248 494 -303 722 -60 246 -77 386 -77 640 1 224 8 299 51 535 30
166 122 433 214 617 67 135 171 308 184 308 6 0 29 -17 51 -38z m4505 -716
c14 -2 45 -7 69 -10 24 -3 45 -7 47 -9 6 -6 52 -218 60 -272 3 -27 8 -52 9
-55 2 -3 7 -48 11 -100 15 -170 9 -505 -10 -605 -2 -11 -7 -40 -10 -65 -31
-227 -122 -512 -238 -745 -62 -124 -156 -285 -167 -285 -3 0 -22 15 -42 33
-19 17 -68 61 -109 97 -40 36 -78 70 -84 75 -6 6 -47 42 -90 80 -44 39 -87 77
-96 85 -16 15 -115 103 -220 196 -79 69 -211 187 -224 199 -6 6 -76 68 -156
139 -80 71 -179 159 -220 196 -189 169 -268 238 -299 266 -19 16 -55 48 -82
72 -26 24 -62 56 -80 71 l-32 28 94 73 c106 82 251 180 268 180 6 0 11 3 11 8
0 4 10 12 23 18 12 6 72 36 132 67 276 139 618 239 899 262 38 3 71 7 74 9 5
6 429 -2 462 -8z m963 -298 c26 -15 50 -28 53 -28 6 0 63 -36 171 -108 356
-236 675 -596 867 -978 102 -205 176 -408 221 -609 17 -75 23 -109 30 -160 3
-22 8 -51 10 -65 26 -147 26 -603 0 -700 -2 -8 -6 -33 -9 -55 -25 -208 -113
-490 -232 -740 -54 -114 -162 -295 -176 -295 -6 0 -198 167 -343 299 -22 20
-83 74 -135 121 -52 46 -100 89 -106 95 -7 5 -43 37 -80 70 -38 33 -93 83
-124 110 -86 77 -209 187 -270 240 -30 27 -71 63 -90 81 -19 17 -82 73 -140
124 -58 51 -138 123 -179 159 -40 36 -86 77 -102 90 l-28 23 58 87 c278 417
453 882 526 1401 28 199 28 698 0 852 -6 32 2 31 78 -14z m-3353 -869 c19 -17
62 -54 94 -82 33 -29 64 -57 70 -63 6 -5 76 -68 156 -139 80 -71 147 -131 150
-134 3 -3 61 -55 130 -116 69 -60 130 -114 136 -120 33 -30 99 -88 174 -155
47 -41 90 -79 96 -85 6 -5 44 -39 84 -75 40 -36 78 -70 84 -75 6 -6 125 -111
264 -234 138 -123 252 -227 252 -232 0 -11 -66 -66 -176 -145 -276 -201 -619
-356 -949 -429 -77 -17 -111 -24 -165 -31 -25 -3 -54 -8 -65 -10 -126 -25
-527 -24 -690 0 -11 2 -25 4 -31 5 -13 1 -19 19 -38 116 -2 11 -9 40 -14 65
-13 55 -20 103 -37 245 -12 103 -13 450 -2 520 3 17 8 59 12 95 4 36 8 67 10
70 2 3 6 25 9 50 5 36 29 141 60 260 40 151 182 475 267 610 9 14 29 46 45 72
16 26 31 47 34 47 3 1 21 -13 40 -30z m2345 -2084 c17 -15 64 -56 104 -93 95
-85 186 -166 231 -206 222 -196 439 -389 490 -437 16 -14 59 -52 96 -85 56
-49 520 -459 548 -485 5 -5 4 -15 -4 -24 -23 -28 -230 -179 -325 -238 -80 -49
-305 -167 -319 -167 -3 0 -29 -11 -58 -24 -181 -80 -491 -159 -723 -182 -96
-10 -424 -10 -515 -1 -100 11 -211 26 -219 31 -3 2 -27 7 -52 10 -81 11 -345
89 -447 132 -84 36 -114 50 -214 100 -110 55 -136 70 -273 160 -153 100 -356
276 -484 420 -96 107 -249 310 -240 318 2 2 83 6 179 10 96 3 185 8 197 10 12
3 54 8 95 11 40 4 76 9 79 10 3 2 28 7 55 10 27 4 78 13 114 21 36 8 76 17 89
20 264 57 596 188 881 345 153 85 494 332 569 413 l24 25 46 -39 c25 -21 60
-51 76 -65z"/>
</g>
</svg>
